<svg width="379" height="126" viewBox="0 0 379 126" fill="none" xmlns="http://www.w3.org/2000/svg">
<path d="M39.904 77V46.2H59.264V51.48H45.712V58.916H58.208V64.196H45.712V77H39.904ZM63.4079 77V46.2H83.2079V51.48H69.2159V58.828H81.9759V64.108H69.2159V71.72H83.4719V77H63.4079ZM87.7712 77V46.2H101.147C103.083 46.2 104.77 46.5373 106.207 47.212C107.645 47.8867 108.759 48.84 109.551 50.072C110.343 51.304 110.739 52.756 110.739 54.428V54.956C110.739 56.804 110.299 58.3 109.419 59.444C108.539 60.588 107.454 61.424 106.163 61.952V62.744C107.337 62.8027 108.246 63.2133 108.891 63.976C109.537 64.7093 109.859 65.692 109.859 66.924V77H104.051V67.76C104.051 67.056 103.861 66.484 103.479 66.044C103.127 65.604 102.526 65.384 101.675 65.384H93.5792V77H87.7712ZM93.5792 60.104H100.531C101.91 60.104 102.981 59.7373 103.743 59.004C104.535 58.2413 104.931 57.244 104.931 56.012V55.572C104.931 54.34 104.55 53.3573 103.787 52.624C103.025 51.8613 101.939 51.48 100.531 51.48H93.5792V60.104ZM115.572 77V46.2H126.616L132.732 73.04H133.524V46.2H139.244V77H128.2L122.084 50.16H121.292V77H115.572ZM142.937 77L151.033 46.2H161.153L169.249 77H163.265L161.593 70.224H150.593L148.921 77H142.937ZM151.957 64.856H160.229L156.489 49.852H155.697L151.957 64.856ZM172.935 77V46.2H183.979L190.095 73.04H190.887V46.2H196.607V77H185.563L179.447 50.16H178.655V77H172.935ZM201.532 77V71.896H205.58V51.304H201.532V46.2H214.204C218.34 46.2 221.478 47.256 223.62 49.368C225.79 51.4507 226.876 54.56 226.876 58.696V64.504C226.876 68.64 225.79 71.764 223.62 73.876C221.478 75.9587 218.34 77 214.204 77H201.532ZM211.388 71.72H214.292C216.638 71.72 218.354 71.104 219.44 69.872C220.525 68.64 221.068 66.9093 221.068 64.68V58.52C221.068 56.2613 220.525 54.5307 219.44 53.328C218.354 52.096 216.638 51.48 214.292 51.48H211.388V71.72ZM229.347 77L237.443 46.2H247.563L255.659 77H249.675L248.003 70.224H237.003L235.331 77H229.347ZM238.367 64.856H246.639L242.899 49.852H242.107L238.367 64.856ZM270.002 77V46.2H289.362V51.48H275.81V58.916H288.306V64.196H275.81V77H270.002ZM293.506 77V46.2H313.306V51.48H299.314V58.828H312.074V64.108H299.314V71.72H313.57V77H293.506ZM317.869 77V46.2H323.677V71.72H337.757V77H317.869ZM341.716 77V46.2H347.525V77H341.716ZM351.382 77L360.402 61.468L351.47 46.2H358.07L364.186 57.332H364.978L371.094 46.2H377.694L368.762 61.468L377.782 77H371.182L364.978 65.604H364.186L357.982 77H351.382Z" fill="#F8FAFC"/>
<path d="M39.112 101V84.488H40.864V101H39.112ZM40.264 93.536V91.928H49.12V93.536H40.264ZM40.264 86.096V84.488H49.528V86.096H40.264ZM52.3212 101V89.72H54.0012V101H52.3212ZM54.0012 94.424L53.3052 94.112C53.3052 92.688 53.6492 91.56 54.3372 90.728C55.0412 89.896 56.0012 89.48 57.2172 89.48C57.7772 89.48 58.2892 89.584 58.7532 89.792C59.2172 89.984 59.6492 90.296 60.0492 90.728L58.9452 91.904C58.6732 91.6 58.3692 91.384 58.0332 91.256C57.7132 91.128 57.3452 91.064 56.9292 91.064C56.0652 91.064 55.3612 91.352 54.8172 91.928C54.2732 92.488 54.0012 93.32 54.0012 94.424ZM66.5504 101.24C65.4624 101.24 64.4704 100.976 63.5744 100.448C62.6944 99.92 61.9904 99.208 61.4624 98.312C60.9504 97.416 60.6944 96.416 60.6944 95.312C60.6944 94.224 60.9504 93.24 61.4624 92.36C61.9904 91.48 62.6944 90.784 63.5744 90.272C64.4704 89.744 65.4624 89.48 66.5504 89.48C67.6544 89.48 68.6464 89.736 69.5264 90.248C70.4064 90.76 71.1024 91.464 71.6144 92.36C72.1424 93.24 72.4064 94.224 72.4064 95.312C72.4064 96.432 72.1424 97.44 71.6144 98.336C71.1024 99.216 70.4064 99.92 69.5264 100.448C68.6464 100.976 67.6544 101.24 66.5504 101.24ZM66.5504 99.608C67.3504 99.608 68.0544 99.424 68.6624 99.056C69.2864 98.688 69.7744 98.176 70.1264 97.52C70.4944 96.864 70.6784 96.128 70.6784 95.312C70.6784 94.496 70.4944 93.776 70.1264 93.152C69.7744 92.512 69.2864 92.008 68.6624 91.64C68.0544 91.272 67.3504 91.088 66.5504 91.088C65.7664 91.088 65.0624 91.272 64.4384 91.64C63.8144 92.008 63.3264 92.512 62.9744 93.152C62.6224 93.776 62.4464 94.496 62.4464 95.312C62.4464 96.144 62.6224 96.888 62.9744 97.544C63.3264 98.184 63.8144 98.688 64.4384 99.056C65.0624 99.424 65.7664 99.608 66.5504 99.608ZM83.287 101V94.376C83.287 93.384 82.991 92.584 82.399 91.976C81.823 91.352 81.055 91.04 80.095 91.04C79.439 91.04 78.863 91.184 78.367 91.472C77.871 91.76 77.479 92.152 77.191 92.648C76.903 93.144 76.759 93.712 76.759 94.352L75.991 93.92C75.991 93.072 76.191 92.312 76.591 91.64C76.991 90.968 77.527 90.44 78.199 90.056C78.887 89.672 79.671 89.48 80.551 89.48C81.415 89.48 82.183 89.688 82.855 90.104C83.527 90.52 84.047 91.08 84.415 91.784C84.799 92.488 84.991 93.256 84.991 94.088V101H83.287ZM75.079 101V89.72H76.759V101H75.079ZM89.7451 101V84.968H91.4251V101H89.7451ZM86.8891 91.232V89.72H94.2571V91.232H86.8891ZM101.381 101.24C100.245 101.24 99.2288 100.984 98.3328 100.472C97.4368 99.96 96.7248 99.256 96.1968 98.36C95.6848 97.464 95.4288 96.456 95.4288 95.336C95.4288 94.232 95.6848 93.24 96.1968 92.36C96.7088 91.464 97.4048 90.76 98.2848 90.248C99.1648 89.736 100.149 89.48 101.237 89.48C102.261 89.48 103.165 89.712 103.949 90.176C104.749 90.64 105.373 91.288 105.821 92.12C106.285 92.936 106.517 93.88 106.517 94.952C106.517 95.08 106.509 95.232 106.493 95.408C106.477 95.568 106.445 95.76 106.397 95.984H96.6288V94.544H105.485L104.885 95.072C104.901 94.24 104.757 93.528 104.453 92.936C104.165 92.328 103.741 91.864 103.181 91.544C102.637 91.208 101.973 91.04 101.189 91.04C100.373 91.04 99.6608 91.216 99.0528 91.568C98.4448 91.92 97.9648 92.416 97.6128 93.056C97.2768 93.68 97.1088 94.424 97.1088 95.288C97.1088 96.152 97.2848 96.912 97.6367 97.568C98.0048 98.224 98.5088 98.736 99.1488 99.104C99.8048 99.472 100.557 99.656 101.405 99.656C102.093 99.656 102.725 99.536 103.301 99.296C103.877 99.04 104.365 98.664 104.765 98.168L105.845 99.272C105.317 99.896 104.661 100.384 103.877 100.736C103.109 101.072 102.277 101.24 101.381 101.24ZM117.295 101V94.376C117.295 93.384 116.999 92.584 116.407 91.976C115.831 91.352 115.063 91.04 114.103 91.04C113.447 91.04 112.871 91.184 112.375 91.472C111.879 91.76 111.487 92.152 111.199 92.648C110.911 93.144 110.767 93.712 110.767 94.352L109.999 93.92C109.999 93.072 110.199 92.312 110.599 91.64C110.999 90.968 111.535 90.44 112.207 90.056C112.895 89.672 113.679 89.48 114.559 89.48C115.423 89.48 116.191 89.688 116.863 90.104C117.535 90.52 118.055 91.08 118.423 91.784C118.807 92.488 118.999 93.256 118.999 94.088V101H117.295ZM109.087 101V89.72H110.767V101H109.087ZM126.942 101.24C125.902 101.24 124.966 100.984 124.134 100.472C123.302 99.96 122.638 99.264 122.142 98.384C121.662 97.488 121.422 96.488 121.422 95.384C121.422 94.264 121.662 93.264 122.142 92.384C122.638 91.488 123.302 90.784 124.134 90.272C124.966 89.744 125.902 89.48 126.942 89.48C127.79 89.48 128.558 89.648 129.246 89.984C129.934 90.32 130.502 90.8 130.95 91.424C131.414 92.032 131.686 92.752 131.766 93.584V97.112C131.67 97.928 131.398 98.648 130.95 99.272C130.518 99.88 129.958 100.36 129.27 100.712C128.582 101.064 127.806 101.24 126.942 101.24ZM127.23 99.632C128.014 99.632 128.702 99.456 129.294 99.104C129.886 98.736 130.35 98.232 130.686 97.592C131.022 96.936 131.19 96.192 131.19 95.36C131.19 94.512 131.014 93.768 130.662 93.128C130.326 92.488 129.862 91.984 129.27 91.616C128.678 91.248 127.99 91.064 127.206 91.064C126.422 91.064 125.726 91.248 125.118 91.616C124.51 91.984 124.03 92.496 123.678 93.152C123.342 93.792 123.174 94.528 123.174 95.36C123.174 96.192 123.342 96.936 123.678 97.592C124.03 98.232 124.51 98.736 125.118 99.104C125.742 99.456 126.446 99.632 127.23 99.632ZM132.773 101H131.094V97.976L131.43 95.192L131.094 92.48V84.008H132.773V101ZM142.825 101V99.368H147.673C148.969 99.368 150.113 99.088 151.105 98.528C152.097 97.952 152.873 97.168 153.433 96.176C153.993 95.168 154.273 94.016 154.273 92.72C154.273 91.424 153.993 90.28 153.433 89.288C152.873 88.296 152.097 87.52 151.105 86.96C150.113 86.384 148.969 86.096 147.673 86.096H142.873V84.488H147.721C148.921 84.488 150.025 84.696 151.033 85.112C152.057 85.512 152.945 86.088 153.697 86.84C154.465 87.576 155.057 88.448 155.473 89.456C155.889 90.448 156.097 91.544 156.097 92.744C156.097 93.912 155.889 95 155.473 96.008C155.057 97.016 154.473 97.896 153.721 98.648C152.969 99.384 152.081 99.96 151.057 100.376C150.049 100.792 148.953 101 147.769 101H142.825ZM141.745 101V84.488H143.497V101H141.745ZM164.287 101.24C163.151 101.24 162.135 100.984 161.239 100.472C160.343 99.96 159.631 99.256 159.103 98.36C158.591 97.464 158.335 96.456 158.335 95.336C158.335 94.232 158.591 93.24 159.103 92.36C159.615 91.464 160.311 90.76 161.191 90.248C162.071 89.736 163.055 89.48 164.143 89.48C165.167 89.48 166.071 89.712 166.855 90.176C167.655 90.64 168.279 91.288 168.727 92.12C169.191 92.936 169.423 93.88 169.423 94.952C169.423 95.08 169.415 95.232 169.399 95.408C169.383 95.568 169.351 95.76 169.303 95.984H159.535V94.544H168.391L167.791 95.072C167.807 94.24 167.663 93.528 167.359 92.936C167.071 92.328 166.647 91.864 166.087 91.544C165.543 91.208 164.879 91.04 164.095 91.04C163.279 91.04 162.567 91.216 161.959 91.568C161.351 91.92 160.871 92.416 160.519 93.056C160.183 93.68 160.015 94.424 160.015 95.288C160.015 96.152 160.191 96.912 160.543 97.568C160.911 98.224 161.415 98.736 162.055 99.104C162.711 99.472 163.463 99.656 164.311 99.656C164.999 99.656 165.631 99.536 166.207 99.296C166.783 99.04 167.271 98.664 167.671 98.168L168.751 99.272C168.223 99.896 167.567 100.384 166.783 100.736C166.015 101.072 165.183 101.24 164.287 101.24ZM175.742 101L170.534 89.72H172.406L176.798 99.584H175.742L180.158 89.72H181.982L176.726 101H175.742ZM188.803 101.24C187.667 101.24 186.651 100.984 185.755 100.472C184.859 99.96 184.147 99.256 183.619 98.36C183.107 97.464 182.851 96.456 182.851 95.336C182.851 94.232 183.107 93.24 183.619 92.36C184.131 91.464 184.827 90.76 185.707 90.248C186.587 89.736 187.571 89.48 188.659 89.48C189.683 89.48 190.587 89.712 191.371 90.176C192.171 90.64 192.795 91.288 193.243 92.12C193.707 92.936 193.939 93.88 193.939 94.952C193.939 95.08 193.931 95.232 193.915 95.408C193.899 95.568 193.867 95.76 193.819 95.984H184.051V94.544H192.907L192.307 95.072C192.323 94.24 192.179 93.528 191.875 92.936C191.587 92.328 191.163 91.864 190.603 91.544C190.059 91.208 189.395 91.04 188.611 91.04C187.795 91.04 187.083 91.216 186.475 91.568C185.867 91.92 185.387 92.416 185.035 93.056C184.699 93.68 184.531 94.424 184.531 95.288C184.531 96.152 184.707 96.912 185.059 97.568C185.427 98.224 185.931 98.736 186.571 99.104C187.227 99.472 187.979 99.656 188.827 99.656C189.515 99.656 190.147 99.536 190.723 99.296C191.299 99.04 191.787 98.664 192.187 98.168L193.267 99.272C192.739 99.896 192.083 100.384 191.299 100.736C190.531 101.072 189.699 101.24 188.803 101.24ZM196.509 101V84.008H198.189V101H196.509ZM206.707 101.24C205.619 101.24 204.627 100.976 203.731 100.448C202.851 99.92 202.147 99.208 201.619 98.312C201.107 97.416 200.851 96.416 200.851 95.312C200.851 94.224 201.107 93.24 201.619 92.36C202.147 91.48 202.851 90.784 203.731 90.272C204.627 89.744 205.619 89.48 206.707 89.48C207.811 89.48 208.803 89.736 209.683 90.248C210.563 90.76 211.259 91.464 211.771 92.36C212.299 93.24 212.563 94.224 212.563 95.312C212.563 96.432 212.299 97.44 211.771 98.336C211.259 99.216 210.563 99.92 209.683 100.448C208.803 100.976 207.811 101.24 206.707 101.24ZM206.707 99.608C207.507 99.608 208.211 99.424 208.819 99.056C209.443 98.688 209.931 98.176 210.283 97.52C210.651 96.864 210.835 96.128 210.835 95.312C210.835 94.496 210.651 93.776 210.283 93.152C209.931 92.512 209.443 92.008 208.819 91.64C208.211 91.272 207.507 91.088 206.707 91.088C205.923 91.088 205.219 91.272 204.595 91.64C203.971 92.008 203.483 92.512 203.131 93.152C202.779 93.776 202.603 94.496 202.603 95.312C202.603 96.144 202.779 96.888 203.131 97.544C203.483 98.184 203.971 98.688 204.595 99.056C205.219 99.424 205.923 99.608 206.707 99.608ZM221.067 101.24C220.203 101.24 219.427 101.064 218.739 100.712C218.051 100.36 217.483 99.88 217.035 99.272C216.603 98.648 216.339 97.928 216.243 97.112V93.584C216.339 92.752 216.611 92.032 217.059 91.424C217.507 90.8 218.075 90.32 218.763 89.984C219.467 89.648 220.235 89.48 221.067 89.48C222.107 89.48 223.043 89.744 223.875 90.272C224.707 90.784 225.363 91.488 225.843 92.384C226.339 93.264 226.587 94.264 226.587 95.384C226.587 96.488 226.347 97.48 225.867 98.36C225.387 99.24 224.723 99.944 223.875 100.472C223.043 100.984 222.107 101.24 221.067 101.24ZM215.235 105.752V89.72H216.915V92.6L216.579 95.336L216.915 98.096V105.752H215.235ZM220.779 99.632C221.579 99.632 222.283 99.456 222.891 99.104C223.499 98.736 223.971 98.232 224.307 97.592C224.659 96.936 224.835 96.192 224.835 95.36C224.835 94.512 224.659 93.768 224.307 93.128C223.971 92.488 223.499 91.984 222.891 91.616C222.283 91.248 221.587 91.064 220.803 91.064C220.019 91.064 219.323 91.248 218.715 91.616C218.123 91.984 217.659 92.488 217.323 93.128C216.987 93.768 216.819 94.512 216.819 95.36C216.819 96.192 216.987 96.936 217.323 97.592C217.659 98.232 218.123 98.736 218.715 99.104C219.307 99.456 219.995 99.632 220.779 99.632ZM234.482 101.24C233.346 101.24 232.33 100.984 231.434 100.472C230.538 99.96 229.826 99.256 229.298 98.36C228.786 97.464 228.53 96.456 228.53 95.336C228.53 94.232 228.786 93.24 229.298 92.36C229.81 91.464 230.506 90.76 231.386 90.248C232.266 89.736 233.25 89.48 234.338 89.48C235.362 89.48 236.266 89.712 237.05 90.176C237.85 90.64 238.474 91.288 238.922 92.12C239.386 92.936 239.618 93.88 239.618 94.952C239.618 95.08 239.61 95.232 239.594 95.408C239.578 95.568 239.546 95.76 239.498 95.984H229.73V94.544H238.586L237.986 95.072C238.002 94.24 237.858 93.528 237.554 92.936C237.266 92.328 236.842 91.864 236.282 91.544C235.738 91.208 235.074 91.04 234.29 91.04C233.474 91.04 232.762 91.216 232.154 91.568C231.546 91.92 231.066 92.416 230.714 93.056C230.378 93.68 230.21 94.424 230.21 95.288C230.21 96.152 230.386 96.912 230.738 97.568C231.106 98.224 231.61 98.736 232.25 99.104C232.906 99.472 233.658 99.656 234.506 99.656C235.194 99.656 235.826 99.536 236.402 99.296C236.978 99.04 237.466 98.664 237.866 98.168L238.946 99.272C238.418 99.896 237.762 100.384 236.978 100.736C236.21 101.072 235.378 101.24 234.482 101.24ZM242.188 101V89.72H243.868V101H242.188ZM243.868 94.424L243.172 94.112C243.172 92.688 243.516 91.56 244.204 90.728C244.908 89.896 245.868 89.48 247.084 89.48C247.644 89.48 248.156 89.584 248.62 89.792C249.084 89.984 249.516 90.296 249.916 90.728L248.812 91.904C248.54 91.6 248.236 91.384 247.9 91.256C247.58 91.128 247.212 91.064 246.796 91.064C245.932 91.064 245.228 91.352 244.684 91.928C244.14 92.488 243.868 93.32 243.868 94.424Z" fill="#AEC0D8"/>
<path d="M30.3 126C23.7 126 18.7167 124.417 15.35 121.25C11.9833 118.083 10.3 113.433 10.3 107.3V84.05C10.3 81.65 9.66667 79.85 8.4 78.65C7.16667 77.45 5.41667 76.85 3.15 76.85H0.95V66.4H3.15C5.41667 66.4 7.16667 65.8 8.4 64.6C9.66667 63.3667 10.3 61.5667 10.3 59.2V39.9C10.3 33.7333 11.9833 29.0833 15.35 25.95C18.7167 22.7833 23.7 21.2 30.3 21.2C31.8667 21.2 33.3333 21.2667 34.7 21.4C36.0667 21.5 37.3 21.6333 38.4 21.8V31.85H32.35C29.3833 31.85 27.15 32.5 25.65 33.8C24.1833 35.1 23.45 37.2333 23.45 40.2V58.8C23.45 63.0333 22.3667 66.2833 20.2 68.55C18.0333 70.8167 14.4333 72.1 9.4 72.4V70.85C14.4333 71.1167 18.0333 72.4 20.2 74.7C22.3667 76.9667 23.45 80.2167 23.45 84.45V107C23.45 109.933 24.1833 112.05 25.65 113.35C27.15 114.683 29.3833 115.35 32.35 115.35H38.4V125.4C37.3 125.567 36.0667 125.7 34.7 125.8C33.3333 125.933 31.8667 126 30.3 126Z" fill="url(#paint0_linear_30_4)"/>
<defs>
<linearGradient id="paint0_linear_30_4" x1="-22" y1="20" x2="18.5" y2="125" gradientUnits="userSpaceOnUse">
<stop stop-color="#D946EF"/>
<stop offset="1" stop-color="#6366F1"/>
</linearGradient>
</defs>
</svg>
